<?xml version="1.0" encoding="utf-8"?>
<!-- Generator: Adobe Illustrator 28.0.0, SVG Export Plug-In . SVG Version: 6.00 Build 0)  -->
<svg version="1.1" id="Layer_2_00000092455320760715762290000004854662293239644563_"
	 xmlns="http://www.w3.org/2000/svg" xmlns:xlink="http://www.w3.org/1999/xlink" x="0px" y="0px" viewBox="0 0 457.2 214.9"
	 style="enable-background:new 0 0 457.2 214.9;" xml:space="preserve">
<style type="text/css">
	.st0{fill:#FCA11C;}
	.st1{fill:#DD2A23;}
	.st2{fill:none;stroke:#FECC89;stroke-width:9.6709;stroke-linecap:round;stroke-miterlimit:10;}
	.st3{fill:none;stroke:#DE8510;stroke-width:9.6709;stroke-linecap:round;stroke-miterlimit:10;}
	.st4{fill:#FEED00;}
</style>
<g id="Layer_1-2">
	<g>
		<path class="st0" d="M91.4,0h274.4c30,0,54.3,24.3,54.3,54.3v106.2c0,30-24.3,54.3-54.3,54.3H91.4c-30,0-54.3-24.3-54.3-54.3V54.3
			C37.1,24.3,61.4,0,91.4,0z"/>
		<path class="st1" d="M38.4,69.1h380.5c21.2,0,38.4,17.2,38.4,38.4v0c0,21.2-17.2,38.4-38.4,38.4H38.4C17.2,145.8,0,128.6,0,107.4
			v0C0,86.2,17.2,69.1,38.4,69.1z"/>
		<line class="st2" x1="108.1" y1="19.3" x2="358.6" y2="19.3"/>
		<line class="st3" x1="103.3" y1="195.6" x2="353.9" y2="195.6"/>
	</g>
</g>
<g id="Layer_2-2">
	<path class="st4" d="M59.3,87.2c5.1,0.2,9.4,2.9,12.9,7.1c3.2,3.8,5.3,8.4,7.8,12.6c1.3,2.2,2.7,4.4,4.2,6.5
		c0.7,0.9,1.5,1.8,2.4,2.5c3.1,2.5,7.2,2.5,10.3-0.2c2.3-2,3.8-4.5,5.3-7c2.3-4,4.6-8.1,7-12.1c2-3.1,4.5-5.7,7.8-7.5
		c7.1-3.8,15.4-2.1,21,4.3c3.1,3.6,5.2,7.8,7.6,11.8c1.8,3,3.6,6.1,5.7,8.9c1.9,2.6,4.6,3.9,7.9,3.5c2.1-0.3,4-1.3,5.2-3
		c2-2.7,3.8-5.5,5.6-8.4c1.8-2.8,3.3-5.8,5-8.6c1.9-3.1,4.3-5.9,7.4-7.9c6.8-4.2,14.9-3.3,20.6,2.3c3.6,3.4,5.9,7.8,8.3,12
		c1.9,3.3,3.9,6.6,6,9.7c1.1,1.6,2.7,2.9,4.6,3.5c3.3,1.1,6.4,0.2,8.6-2.4c2.1-2.4,3.8-5.2,5.5-7.9c2.5-3.9,4.6-8.1,7.3-11.9
		c2.6-3.8,6.2-6.6,10.8-7.6c7.1-1.5,12.7,1.1,17.2,6.4c3.2,3.8,5.3,8.2,7.8,12.4c1.6,2.7,3.2,5.5,5.2,7.8c4,4.8,9.3,4.7,13.5,0
		c2.8-3.1,4.6-6.9,6.6-10.5c2.1-3.7,4.1-7.4,7-10.6c5.7-6.2,13.9-7.8,20.8-4c3.3,1.8,5.8,4.5,7.8,7.6c2.3,3.8,4.4,7.7,6.7,11.5
		c1.3,2.2,2.7,4.3,4.4,6.2c3.8,4.3,9.2,4.4,12.9,0c2.3-2.7,4.1-5.8,5.9-8.9c2.4-4.1,4.5-8.4,7.7-12c3.5-4,7.8-6.4,13.2-6.4
		c4.5,0,8.3,1.6,11.5,4.6c3.4,3.1,5.7,7.1,7.9,11c2.2,3.8,4,7.8,6.9,11.2c1.9,2.2,4.1,3.7,7.2,3.8c2.5,0.1,4.2,2.1,4.1,4.5
		c-0.1,2.3-2.1,4.1-4.5,4c-4.4-0.1-8.1-1.7-11.3-4.7c-3.5-3.3-5.8-7.4-8.2-11.5c-2-3.5-4.1-7-6.4-10.3c-1.3-2-3.2-3.4-5.7-3.9
		c-2.6-0.5-4.8,0.2-6.8,1.8c-2.3,2-3.9,4.5-5.3,7c-2.3,3.9-4.4,7.9-6.8,11.8c-2,3.2-4.6,6-8.1,7.8c-7.1,3.8-15.7,2.1-21.1-4.7
		c-2.4-3-4.3-6.3-6.3-9.6c-1.9-3.1-3.7-6.3-5.6-9.3c-0.5-0.9-1.3-1.6-2-2.3c-3.9-3.8-9-3.6-12.5,0.5c-2,2.4-3.6,5.1-5.2,7.7
		c-2.4,3.8-4.5,7.8-7,11.5c-2.4,3.6-5.8,6.4-10.1,7.5c-6.6,1.7-12.3-0.2-17-5c-3.2-3.3-5.3-7.4-7.6-11.4c-1.9-3.2-3.9-6.4-5.9-9.6
		c-0.4-0.7-1.1-1.3-1.7-1.8c-3.3-3-7.7-3-11,0c-2.7,2.4-4.4,5.6-6.2,8.7c-2.2,3.8-4.3,7.6-6.7,11.2c-2.6,3.8-6,6.8-10.6,7.9
		c-7.3,1.8-13.1-0.8-17.9-6.3c-3.1-3.7-5.2-8-7.6-12.1c-1.6-2.8-3.3-5.6-5.3-8.1c-3.8-4.7-9.2-4.7-13.3-0.2c-2.5,2.7-4.2,6-6,9.2
		c-2.1,3.8-4.1,7.7-6.9,11.1c-3.1,3.7-6.9,6.4-11.9,6.9c-6.4,0.7-11.4-1.9-15.4-6.6c-3-3.5-5.1-7.7-7.4-11.7c-1.8-3.1-3.8-6.2-6-9.1
		c-2-2.6-4.8-3.6-8.1-2.9c-2.1,0.5-3.8,1.6-5,3.4c-2.2,3.2-4.2,6.6-6.3,9.9c-2.1,3.4-3.9,7-6.4,10c-7.8,9.7-19.6,9.6-27.6,0
		c-3.1-3.8-5.2-8.2-7.6-12.3c-1.4-2.5-2.9-4.9-4.6-7.1c-1.8-2.5-4.2-4-7.5-4c-2.4,0-4.1-2.1-3.9-4.6C54.2,88.8,56.2,87.1,59.3,87.2
		L59.3,87.2z"/>
</g>
</svg>
