<?xml version="1.0" encoding="UTF-8"?>
<svg id="Layer_2" data-name="Layer 2" xmlns="http://www.w3.org/2000/svg" viewBox="0 0 618.96 584">
  <defs>
    <style>
      .cls-1 {
        fill: #dd2a23;
        stroke-width: 0px;
      }
    </style>
  </defs>
  <g id="Layer_1-2" data-name="Layer 1">
    <path class="cls-1" d="m0,53.08c0-5.6.26-11.07.78-16.41.52-5.34,1.79-10.12,3.81-14.36,2.02-4.23,4.98-7.65,8.89-10.25,3.91-2.6,9.31-3.91,16.21-3.91s12.14,1.3,16.11,3.91c3.97,2.61,6.96,6.02,8.98,10.25,2.02,4.23,3.29,9.02,3.81,14.36.52,5.34.78,10.81.78,16.41v61.33h53.52v-61.33c0-5.6.26-11.07.78-16.41.52-5.34,1.79-10.12,3.81-14.36,2.02-4.23,4.98-7.65,8.89-10.25,3.91-2.6,9.31-3.91,16.21-3.91s12.14,1.3,16.11,3.91c3.97,2.61,6.96,6.02,8.98,10.25,2.02,4.23,3.29,9.02,3.81,14.36.52,5.34.78,10.81.78,16.41v183.59c0,5.73-.26,11.26-.78,16.6-.52,5.34-1.79,10.13-3.81,14.36-2.02,4.23-5.01,7.62-8.98,10.16-3.97,2.54-9.34,3.81-16.11,3.81s-12.3-1.27-16.21-3.81-6.87-5.92-8.89-10.16c-2.02-4.23-3.29-9.01-3.81-14.36-.52-5.34-.78-10.87-.78-16.6v-64.84h-53.52v64.84c0,5.73-.26,11.26-.78,16.6-.52,5.34-1.79,10.13-3.81,14.36-2.02,4.23-5.01,7.62-8.98,10.16-3.97,2.54-9.34,3.81-16.11,3.81s-12.3-1.27-16.21-3.81-6.87-5.92-8.89-10.16c-2.02-4.23-3.29-9.01-3.81-14.36-.52-5.34-.78-10.87-.78-16.6V53.08Z"/>
    <path class="cls-1" d="m574.39,8.16c5.21,0,10.45.2,15.72.59s10.06,1.5,14.36,3.32c4.3,1.83,7.78,4.59,10.45,8.3,2.67,3.71,4,8.89,4,15.53s-1.34,11.62-4,15.33c-2.67,3.71-6.15,6.48-10.45,8.3-4.3,1.83-9.08,2.96-14.36,3.42-5.27.46-10.52.68-15.72.68h-19.92v173.44c0,5.6-.17,11.07-.49,16.41-.33,5.34-1.4,10.09-3.22,14.26-1.83,4.17-4.75,7.52-8.79,10.06-4.04,2.54-9.77,3.81-17.19,3.81s-13.15-1.27-17.19-3.81c-4.04-2.54-6.97-5.89-8.79-10.06-1.83-4.17-2.9-8.92-3.22-14.26-.33-5.34-.49-10.81-.49-16.41V63.63h-19.92c-5.21,0-10.45-.23-15.72-.68-5.27-.45-10.06-1.59-14.36-3.42-4.3-1.82-7.78-4.59-10.45-8.3-2.67-3.71-4-8.82-4-15.33s1.33-11.82,4-15.53c2.67-3.71,6.15-6.48,10.45-8.3,4.3-1.82,9.08-2.93,14.36-3.32s10.51-.59,15.72-.59h99.22Z"/>
    <path class="cls-1" d="m88.1,298.93c11.85,0,22.88,1.5,33.11,4.49,10.22,3,19.14,7.46,26.76,13.38,7.62,5.93,13.6,13.31,17.97,22.17,4.36,8.86,6.54,19.21,6.54,31.05v121.09c0,10.16-1.11,19.11-3.32,26.86-2.22,7.75-5.11,14.45-8.69,20.12-3.58,5.66-7.65,10.48-12.21,14.45-4.56,3.97-9.18,7.2-13.87,9.67-11.2,5.99-23.9,9.38-38.09,10.16H31.46c-7.42,0-13.15-1.27-17.19-3.81-4.04-2.54-6.97-5.92-8.79-10.16-1.83-4.23-2.9-9.01-3.22-14.36-.33-5.34-.49-10.87-.49-16.6v-183.98c0-5.6.16-11.07.49-16.41.32-5.34,1.4-10.09,3.22-14.26,1.82-4.17,4.75-7.52,8.79-10.06,4.03-2.54,9.77-3.81,17.19-3.81h56.64Zm-26.95,45.7v181.25h25.39c5.6-.26,10.61-1.56,15.04-3.91,1.82-.91,3.64-2.15,5.47-3.71,1.82-1.56,3.45-3.42,4.88-5.57,1.43-2.15,2.57-4.72,3.42-7.71.84-2.99,1.27-6.45,1.27-10.35v-115.23c0-4.3-.42-8.11-1.27-11.43-.85-3.32-1.99-6.22-3.42-8.69-1.43-2.47-3.06-4.56-4.88-6.25-1.83-1.69-3.65-3.06-5.47-4.1-4.43-2.47-9.44-3.91-15.04-4.3h-25.39Z"/>
    <path class="cls-1" d="m213.6,81.48c0-12.91,1.82-23.9,5.47-32.97,3.64-9.08,8.3-16.64,13.96-22.69s11.91-10.79,18.75-14.22c6.84-3.43,13.48-6.02,19.92-7.76,6.45-1.75,12.27-2.82,17.48-3.23,5.21-.4,9.05-.61,11.52-.61h6.64c2.47,0,6.31.2,11.52.61,5.21.4,11,1.48,17.38,3.23,6.38,1.75,12.99,4.34,19.82,7.76,6.84,3.43,13.02,8.17,18.55,14.22,5.53,6.05,10.09,13.61,13.67,22.69,3.58,9.08,5.37,20.07,5.37,32.97v419.03c0,13.31-1.79,24.6-5.37,33.88-3.58,9.28-8.14,17.01-13.67,23.19-5.54,6.19-11.72,11.06-18.55,14.62-6.84,3.56-13.45,6.22-19.82,7.97-6.38,1.75-12.18,2.82-17.38,3.23-5.21.4-9.05.61-11.52.61h-6.64c-2.48,0-6.32-.2-11.52-.61-5.21-.4-11.04-1.48-17.48-3.23-6.45-1.74-13.09-4.4-19.92-7.97-6.84-3.56-13.09-8.44-18.75-14.62-5.66-6.18-10.32-13.92-13.96-23.19-3.65-9.28-5.47-20.57-5.47-33.88V81.48Zm64.84,426.69c.26,4.98,1.37,9.35,3.32,13.11,1.69,3.36,4.26,6.39,7.71,9.08,3.45,2.69,8.36,4.03,14.75,4.03s11.07-1.34,14.45-4.03c3.38-2.69,5.92-5.71,7.62-9.08,1.82-3.76,2.93-8.13,3.32-13.11V78.25c-.39-4.84-1.5-9.21-3.32-13.11-1.69-3.23-4.23-6.22-7.62-8.97-3.39-2.75-8.2-4.13-14.45-4.13s-11.3,1.38-14.75,4.13c-3.45,2.76-6.02,5.75-7.71,8.97-1.95,3.9-3.06,8.27-3.32,13.11v429.92Z"/>
    <path class="cls-1" d="m618.96,554.39c0,1.69-.17,3.65-.49,5.86-.33,2.22-1.17,4.33-2.54,6.35-1.37,2.02-3.35,3.75-5.96,5.18-2.61,1.43-6.12,2.15-10.55,2.15-4.95,0-8.86-.68-11.72-2.05-2.87-1.37-5.05-3.06-6.54-5.08-1.5-2.02-2.48-4.13-2.93-6.35-.46-2.21-.68-4.23-.68-6.05v-11.72c-6.25,9.25-14.23,16.77-23.93,22.56-9.7,5.8-21.65,8.69-35.84,8.69-2.48,0-6.32-.2-11.52-.59-5.21-.39-11.07-1.43-17.58-3.12-6.51-1.69-13.22-4.23-20.12-7.62-6.9-3.38-13.18-8.11-18.85-14.16s-10.32-13.6-13.96-22.66c-3.65-9.05-5.47-20.08-5.47-33.11v-109.37c0-10.67,1.3-20.12,3.91-28.32,2.6-8.2,6.02-15.33,10.25-21.39,4.23-6.05,9.08-11.13,14.55-15.23s11.07-7.52,16.8-10.25c13.28-6.25,28.45-9.83,45.51-10.74,14.45,0,26.82,1.63,37.11,4.88,10.28,3.26,19.01,7.49,26.17,12.7,7.16,5.21,12.89,11.1,17.19,17.68,4.3,6.58,7.62,13.25,9.96,20.02,2.34,6.77,3.87,13.28,4.59,19.53.71,6.25,1.07,11.65,1.07,16.21,0,1.95-.17,4.33-.49,7.13-.33,2.8-1.46,5.47-3.42,8.01s-5.05,4.69-9.28,6.45c-4.23,1.76-10.25,2.64-18.07,2.64-2.73,0-6.09-.16-10.06-.49-3.97-.32-7.78-1.14-11.43-2.44-3.65-1.3-6.77-3.22-9.38-5.76-2.61-2.54-3.91-6.02-3.91-10.45,0-7.03-.42-13.31-1.27-18.85-.85-5.53-2.38-10.25-4.59-14.16-2.22-3.91-5.27-6.87-9.18-8.89-3.91-2.02-8.92-3.03-15.04-3.03s-11.3,1.3-14.75,3.91c-3.45,2.61-5.96,5.47-7.52,8.59-1.83,3.65-2.87,7.81-3.12,12.5v125c0,4.17.75,8.08,2.25,11.72,1.5,3.65,3.61,6.84,6.35,9.57s5.96,4.88,9.67,6.45,7.78,2.34,12.21,2.34c5.21,0,9.93-1.14,14.16-3.42,4.23-2.28,8.04-5.34,11.43-9.18,3.38-3.84,6.41-8.2,9.08-13.09,2.67-4.88,5.04-9.99,7.13-15.33h-18.75c-3.78-.39-7.1-1.37-9.96-2.93-2.61-1.3-4.92-3.25-6.93-5.86-2.02-2.6-3.03-6.18-3.03-10.74,0-4.95,1.01-8.75,3.03-11.43,2.02-2.67,4.33-4.65,6.93-5.96,2.86-1.43,6.18-2.28,9.96-2.54h50.78c.91,0,2.37.17,4.39.49,2.02.33,4.1,1.27,6.25,2.83s4.03,3.88,5.66,6.93c1.63,3.06,2.44,7.32,2.44,12.79v83.2Z"/>
  </g>
</svg>